<svg xmlns="http://www.w3.org/2000/svg" xmlns:xlink="http://www.w3.org/1999/xlink" viewBox="0 0 237.52 305.6"><defs><style>.cls-1{fill:none;}.cls-2{fill:#ae4566;}.cls-3{fill:#f1bdd7;}.cls-4{fill:#a38e94;}.cls-5{fill:#100f10;opacity:0.1;}.cls-6{fill:#f17e9c;}.cls-7{clip-path:url(#clip-path);}.cls-8{fill:#b9506b;}.cls-9{fill:#9b3b58;}.cls-10{clip-path:url(#clip-path-2);}.cls-11{fill:#f3cadf;}.cls-12{fill:#a19687;}.cls-13{clip-path:url(#clip-path-3);}.cls-14{clip-path:url(#clip-path-4);}.cls-15{fill:#fae6f0;}.cls-16{fill:#f389a3;}.cls-17{clip-path:url(#clip-path-5);}.cls-18{fill:#e17193;}.cls-19{clip-path:url(#clip-path-6);}.cls-20{fill:#6bc07d;}.cls-21{fill:#56ba6b;}</style><clipPath id="clip-path"><path class="cls-1" d="M30.93,84.68s-6.36,25.74-28.39,63.65c0,0,8.58-4.54,30.75-5.44s31.08,2.93,31.08,2.93C39.34,109.82,30.93,84.68,30.93,84.68Z"/></clipPath><clipPath id="clip-path-2"><path class="cls-1" d="M184.33,78.44s8.42,25.14,33.45,61.14c0,0-8.93-3.83-31.09-2.93s-30.75,5.44-30.75,5.44C178,104.18,184.33,78.44,184.33,78.44Z"/></clipPath><clipPath id="clip-path-3"><path class="cls-1" d="M146.4,25.44s10.75,32.13,42.73,78.11c0,0-11.4-4.89-39.72-3.74s-39.28,7-39.28,7C138.28,58.33,146.4,25.44,146.4,25.44Z"/></clipPath><clipPath id="clip-path-4"><path class="cls-1" d="M65.3,28.73S57.18,61.62,29,110c0,0,11-5.8,39.28-6.94S108,106.84,108,106.84C76.05,60.85,65.3,28.73,65.3,28.73Z"/></clipPath><clipPath id="clip-path-5"><path class="cls-1" d="M125.83,256.19c-2.85-10-12.24-15.32-12.24-15.32h-.14s-8.93,6.07-11,16.25a125,125,0,0,0-2,21.24l14.5-.59h.14l14.49-.58A125.54,125.54,0,0,0,125.83,256.19Z"/></clipPath><clipPath id="clip-path-6"><path class="cls-1" d="M107,78.4s-8,34.68-36.09,85.7c0,0,10.95-6.09,39.27-7.24s39.73,4,39.73,4C117.85,112.32,107,78.4,107,78.4Z"/></clipPath></defs><title>Castle</title><g id="Layer_2" data-name="Layer 2"><g id="objects"><path class="cls-2" d="M64.49,146.23c.11,2.72-13.69,5.48-30.83,6.18s-31.12-.95-31.23-3.67,13.7-5.48,30.83-6.17S64.38,143.51,64.49,146.23Z"/><polygon class="cls-3" points="33.19 140.44 11.02 141.34 22.73 281.53 38.88 280.88 55.02 280.22 55.35 139.54 33.19 140.44"/><path class="cls-4" d="M20.23,165.55s-2.53-15.91,1.95-16.13c5.33-.28,4.07,15.89,4.07,15.89Z"/><path class="cls-5" d="M22.18,149.42C25.76,160.26,20,163.55,20,163.55c.14,1.22.27,2,.27,2l6-.24S27.51,149.14,22.18,149.42Z"/><path class="cls-4" d="M31.17,165.11S28.64,149.2,33.12,149c5.33-.27,4.07,15.89,4.07,15.89Z"/><path class="cls-5" d="M33.12,149c3.58,10.84-2.22,14.14-2.22,14.14.15,1.21.27,2,.27,2l6-.25S38.45,148.7,33.12,149Z"/><path class="cls-4" d="M42.12,164.66s-2.53-15.9,1.94-16.13c5.34-.28,4.07,15.89,4.07,15.89Z"/><path class="cls-5" d="M44.06,148.53c3.59,10.84-2.21,14.13-2.21,14.13.14,1.22.27,2,.27,2l6-.24S49.4,148.25,44.06,148.53Z"/><path class="cls-6" d="M30.93,84.68s-6.36,25.74-28.39,63.65c0,0,8.58-4.54,30.75-5.44s31.08,2.93,31.08,2.93C39.34,109.82,30.93,84.68,30.93,84.68Z"/><g class="cls-7"><path class="cls-8" d="M57.19,132.05c-30.78-7.36-48.41,1.87-48.58,2l-.17-.46c.17-.09,17.9-9.38,48.82-2Z"/><path class="cls-8" d="M54.52,120.14c-28-6.7-44.05,1.69-44.21,1.78l-.17-.46c.16-.08,16.3-8.54,44.45-1.81Z"/><path class="cls-8" d="M54,107.71c-28-6.7-44,1.69-44.2,1.77L9.64,109c.16-.09,16.29-8.55,44.44-1.82Z"/><polygon class="cls-8" points="16.07 144.74 15.7 144.51 21.54 129.79 21.91 130.02 16.07 144.74"/><polygon class="cls-8" points="49.38 143.39 42.37 129.19 42.72 128.93 49.74 143.13 49.38 143.39"/><path class="cls-8" d="M32.12,143h-.41c-.19-5.38-.5-13.53-.56-13.92l.2,0v-.27C31.62,128.72,31.62,128.72,32.12,143Z"/><polygon class="cls-8" points="15.53 131.4 15.16 131.18 20.19 118.39 20.56 118.61 15.53 131.4"/><polygon class="cls-8" points="27.18 129.26 26.77 129.23 27.25 117.44 27.66 117.48 27.18 129.26"/><polygon class="cls-8" points="36.9 128.87 35.53 117.34 35.94 117.28 37.3 128.8 36.9 128.87"/><polygon class="cls-8" points="49.01 130.31 43.8 118.07 44.17 117.84 49.38 130.08 49.01 130.31"/><polygon class="cls-8" points="24.04 117.99 23.64 117.84 26.76 105.02 27.15 105.17 24.04 117.99"/><polygon class="cls-8" points="34.03 117.31 32.76 104.87 33.17 104.82 34.44 117.26 34.03 117.31"/><polygon class="cls-8" points="42.48 117.89 38.35 105.13 38.73 104.95 42.87 117.71 42.48 117.89"/><path class="cls-8" d="M53.58,97c-28-6.7-44,1.69-44.21,1.78l-.17-.46c.16-.08,16.3-8.54,44.45-1.81Z"/><polygon class="cls-8" points="29.69 104.95 29.28 104.9 30.08 94.13 30.49 94.18 29.69 104.95"/><polygon class="cls-8" points="36.48 105.01 33.51 94.22 33.9 94.06 36.87 104.86 36.48 105.01"/><polygon class="cls-8" points="31.58 94.12 30.72 84.7 31.13 84.65 31.99 94.07 31.58 94.12"/></g><path class="cls-5" d="M33.29,142.89c22.16-.9,31.08,2.93,31.08,2.93-25-36-33.44-61.14-33.44-61.14s-.4,1.58-1.32,4.54h0S39.86,117.8,37.3,128.8,6.4,141.53,6.4,141.53h0c-1.24,2.22-2.52,4.48-3.86,6.8C2.54,148.33,11.12,143.79,33.29,142.89Z"/><path class="cls-4" d="M21.33,192.91s-2.53-15.9,2-16.13c5.34-.28,4.07,15.89,4.07,15.89Z"/><path class="cls-5" d="M23.28,176.78c3.59,10.84-2.21,14.13-2.21,14.13.14,1.22.26,2,.26,2l6-.24S28.62,176.5,23.28,176.78Z"/><path class="cls-4" d="M32.28,192.47s-2.53-15.91,1.95-16.14c5.33-.27,4.07,15.89,4.07,15.89Z"/><path class="cls-5" d="M34.23,176.33C37.81,187.17,32,190.47,32,190.47c.14,1.22.27,2,.27,2l6-.25S39.56,176.06,34.23,176.33Z"/><path class="cls-4" d="M43.22,192s-2.53-15.9,2-16.13c5.34-.27,4.07,15.89,4.07,15.89Z"/><path class="cls-5" d="M45.17,175.89C48.76,186.73,43,190,43,190c.14,1.21.26,2,.26,2l6-.24S50.51,175.62,45.17,175.89Z"/><rect class="cls-9" x="30.22" y="67.04" width="0.71" height="18.64" transform="translate(-3.11 1.32) rotate(-2.36)"/><path class="cls-6" d="M30.63,69s-1.31-1.73-5.12-1A15.58,15.58,0,0,1,14.61,66a10.37,10.37,0,0,0,5,4.46,18.37,18.37,0,0,1-9-2s5.45,6.13,11.46,5.56c7.51-.71,8.82,1.15,8.82,1.15Z"/><path class="cls-5" d="M22.06,74.09c-6,.57-11.46-5.56-11.46-5.56,4.55,4.1,12.71,3.82,16.08,3.64s4.13,1.11,4.13,1.11l.07,2S29.57,73.38,22.06,74.09Z"/><path class="cls-2" d="M155.86,142.5c.11,2.72,14.09,4.36,31.23,3.67S218,142.71,217.92,140s-14.1-4.36-31.23-3.66S155.75,139.79,155.86,142.5Z"/><polygon class="cls-3" points="186.59 134.2 208.76 133.31 208.43 273.98 192.28 274.64 176.14 275.29 164.43 135.1 186.59 134.2"/><path class="cls-4" d="M201.54,158.18s1.24-16.06-3.25-15.92c-5.33.16-2.77,16.17-2.77,16.17Z"/><path class="cls-5" d="M198.29,142.26c-2.69,11.09,3.36,13.91,3.36,13.91-.05,1.22-.11,2-.11,2l-6,.25S193,142.42,198.29,142.26Z"/><path class="cls-4" d="M190.6,158.62s1.23-16.05-3.25-15.92c-5.34.16-2.77,16.17-2.77,16.17Z"/><path class="cls-5" d="M187.35,142.7c-2.7,11.09,3.35,13.91,3.35,13.91,0,1.22-.1,2-.1,2l-6,.25S182,142.86,187.35,142.7Z"/><path class="cls-4" d="M179.65,159.07s1.24-16.06-3.25-15.92c-5.33.15-2.77,16.16-2.77,16.16Z"/><path class="cls-5" d="M176.4,143.15c-2.69,11.09,3.36,13.9,3.36,13.9,0,1.23-.11,2-.11,2l-6,.24S171.07,143.3,176.4,143.15Z"/><path class="cls-6" d="M184.33,78.44s8.42,25.14,33.45,61.14c0,0-8.93-3.83-31.09-2.93s-30.75,5.44-30.75,5.44C178,104.18,184.33,78.44,184.33,78.44Z"/><g class="cls-10"><path class="cls-8" d="M162,127.79c30.09-9.83,48.4-2.06,48.58-2l.13-.48c-.18-.08-18.6-7.9-48.82,2Z"/><path class="cls-8" d="M163.69,115.69c27.38-8.94,44-1.87,44.2-1.8l.14-.47c-.17-.07-16.94-7.2-44.45,1.79Z"/><path class="cls-8" d="M163.19,103.26c27.38-8.94,44-1.88,44.2-1.8l.13-.47c-.16-.08-16.93-7.2-44.45,1.79Z"/><polygon class="cls-8" points="204 137.1 204.36 136.85 197.34 122.65 196.99 122.9 204 137.1"/><polygon class="cls-8" points="170.69 138.45 176.53 123.73 176.16 123.5 170.31 138.23 170.69 138.45"/><path class="cls-8" d="M187.85,136.61l.42,0c-.25-5.37-.6-13.52-.57-13.91l-.2,0,0-.27C187.21,122.4,187.21,122.4,187.85,136.61Z"/><polygon class="cls-8" points="203.46 123.76 203.81 123.51 197.76 111.17 197.41 111.42 203.46 123.76"/><polygon class="cls-8" points="191.68 122.57 192.08 122.51 190.65 110.8 190.24 110.87 191.68 122.57"/><polygon class="cls-8" points="181.96 122.97 182.38 111.37 181.97 111.34 181.55 122.93 181.96 122.97"/><polygon class="cls-8" points="170 125.38 174.2 112.76 173.82 112.57 169.62 125.19 170 125.38"/><polygon class="cls-8" points="193.9 111.09 194.28 110.91 190.13 98.37 189.75 98.56 193.9 111.09"/><polygon class="cls-8" points="183.88 111.22 184.14 98.72 183.73 98.7 183.47 111.2 183.88 111.22"/><polygon class="cls-8" points="175.5 112.48 178.59 99.42 178.19 99.28 175.11 112.33 175.5 112.48"/><path class="cls-8" d="M162.75,92.54c27.38-8.94,44-1.87,44.21-1.8l.13-.47c-.17-.07-16.94-7.2-44.45,1.79Z"/><polygon class="cls-8" points="187.21 98.55 187.61 98.46 185.94 87.8 185.54 87.88 187.21 98.55"/><polygon class="cls-8" points="180.44 99.16 182.53 88.16 182.12 88.03 180.04 99.03 180.44 99.16"/><polygon class="cls-8" points="184.44 87.91 184.54 78.45 184.13 78.43 184.03 87.89 184.44 87.91"/></g><path class="cls-5" d="M186.69,136.65c-22.16.9-30.75,5.44-30.75,5.44,22-37.91,28.39-63.65,28.39-63.65s.52,1.55,1.68,4.42h0s-7.91,29.31-4.46,40.07,31.83,10.19,31.83,10.19h0c1.41,2.11,2.87,4.27,4.4,6.46C217.78,139.58,208.85,135.75,186.69,136.65Z"/><path class="cls-4" d="M202.65,185.54s1.24-16-3.25-15.92c-5.33.16-2.77,16.17-2.77,16.17Z"/><path class="cls-5" d="M199.4,169.62c-2.69,11.09,3.36,13.91,3.36,13.91,0,1.22-.11,2-.11,2l-6,.25S194.07,169.78,199.4,169.62Z"/><path class="cls-4" d="M191.71,186s1.23-16.06-3.25-15.93c-5.34.16-2.77,16.17-2.77,16.17Z"/><path class="cls-5" d="M188.46,170.06c-2.7,11.1,3.35,13.91,3.35,13.91,0,1.23-.1,2-.1,2l-6,.24S183.12,170.22,188.46,170.06Z"/><path class="cls-4" d="M180.76,186.43s1.24-16.06-3.25-15.92c-5.33.15-2.77,16.16-2.77,16.16Z"/><path class="cls-5" d="M177.51,170.51c-2.69,11.09,3.36,13.9,3.36,13.91-.05,1.22-.11,2-.11,2l-6,.24S172.18,170.66,177.51,170.51Z"/><rect class="cls-9" x="183.65" y="60.8" width="0.71" height="18.64" transform="translate(-2.61 7.29) rotate(-2.25)"/><path class="cls-6" d="M183.35,62.74s1.17-1.83,5-1.44a15.62,15.62,0,0,0,10.71-2.76,10.4,10.4,0,0,1-4.6,4.84,18.45,18.45,0,0,0,8.8-2.68s-4.94,6.55-11,6.47c-7.55-.11-8.71,1.86-8.71,1.86Z"/><path class="cls-5" d="M192.32,67.17c6,.08,11-6.47,11-6.47-4.2,4.46-12.37,4.84-15.74,4.93s-4,1.44-4,1.44l.08,2S184.77,67.06,192.32,67.17Z"/><path class="cls-2" d="M110,107.29c.14,3.47,18,5.57,39.89,4.68s39.53-4.42,39.39-7.89-18-5.57-39.9-4.68S109.88,103.82,110,107.29Z"/><polygon class="cls-11" points="149.28 96.68 177.6 95.53 177.18 275.26 156.56 276.1 135.93 276.93 120.97 97.83 149.28 96.68"/><path class="cls-4" d="M168.38,127.31S170,106.8,164.23,107c-6.82.21-3.54,20.66-3.54,20.66Z"/><path class="cls-5" d="M164.23,107c-3.44,14.18,4.29,17.77,4.29,17.77-.06,1.57-.14,2.57-.14,2.57l-7.69.32S157.41,107.18,164.23,107Z"/><path class="cls-12" d="M154.4,127.88s1.58-20.51-4.15-20.34c-6.82.2-3.54,20.65-3.54,20.65Z"/><path class="cls-5" d="M150.25,107.54c-3.44,14.17,4.28,17.77,4.29,17.77-.06,1.56-.14,2.57-.14,2.57l-7.69.31S143.43,107.74,150.25,107.54Z"/><path class="cls-4" d="M140.41,128.45s1.58-20.52-4.15-20.34c-6.81.2-3.53,20.65-3.53,20.65Z"/><path class="cls-5" d="M136.26,108.11c-3.44,14.17,4.29,17.77,4.29,17.77-.06,1.56-.14,2.57-.14,2.57l-7.68.31S129.45,108.31,136.26,108.11Z"/><path class="cls-6" d="M146.4,25.44s10.75,32.13,42.73,78.11c0,0-11.4-4.89-39.72-3.74s-39.28,7-39.28,7C138.28,58.33,146.4,25.44,146.4,25.44Z"/><g class="cls-13"><path class="cls-8" d="M117.85,88.48c38.44-12.55,61.83-2.63,62.06-2.53l.17-.6c-.23-.1-23.76-10.1-62.38,2.51Z"/><path class="cls-8" d="M120,73c35-11.43,56.26-2.4,56.48-2.31l.16-.6c-.21-.09-21.63-9.19-56.78,2.29Z"/><path class="cls-8" d="M119.38,57.15c35-11.42,56.26-2.4,56.47-2.3l.17-.6c-.21-.1-21.63-9.2-56.78,2.28Z"/><polygon class="cls-8" points="171.53 100.39 171.98 100.06 163.01 81.92 162.56 82.24 171.53 100.39"/><polygon class="cls-8" points="128.96 102.11 136.43 83.3 135.95 83.01 128.49 101.82 128.96 102.11"/><path class="cls-8" d="M150.89,99.76l.53,0c-.31-6.87-.76-17.28-.73-17.79l-.26,0v-.34C150.07,81.6,150.07,81.6,150.89,99.76Z"/><polygon class="cls-8" points="170.84 83.34 171.28 83.02 163.55 67.25 163.1 67.57 170.84 83.34"/><polygon class="cls-8" points="155.77 81.82 156.29 81.74 154.46 66.79 153.94 66.87 155.77 81.82"/><polygon class="cls-8" points="143.36 82.33 143.9 67.51 143.38 67.47 142.84 82.29 143.36 82.33"/><polygon class="cls-8" points="128.08 85.41 133.45 69.29 132.96 69.04 127.6 85.17 128.08 85.41"/><polygon class="cls-8" points="158.61 67.15 159.1 66.92 153.8 50.91 153.31 51.14 158.61 67.15"/><polygon class="cls-8" points="145.82 67.31 146.15 51.35 145.63 51.32 145.29 67.29 145.82 67.31"/><polygon class="cls-8" points="135.11 68.93 139.06 52.25 138.56 52.06 134.61 68.74 135.11 68.93"/><path class="cls-8" d="M118.82,43.46c35-11.42,56.27-2.4,56.48-2.3l.17-.6c-.21-.1-21.64-9.2-56.79,2.28Z"/><polygon class="cls-8" points="150.07 51.13 150.58 51.02 148.45 37.39 147.94 37.5 150.07 51.13"/><polygon class="cls-8" points="141.42 51.9 144.09 37.85 143.57 37.7 140.91 51.75 141.42 51.9"/><polygon class="cls-8" points="146.54 37.53 146.66 25.45 146.13 25.43 146.01 37.52 146.54 37.53"/></g><path class="cls-5" d="M149.41,99.81c-28.31,1.15-39.28,7-39.28,7,28.15-48.43,36.27-81.32,36.27-81.32s.66,2,2.14,5.65h0s-10.1,37.45-5.7,51.2,40.67,13,40.67,13h0q2.69,4,5.62,8.26S177.73,98.66,149.41,99.81Z"/><path class="cls-4" d="M169.8,162.27s1.57-20.51-4.15-20.34c-6.82.2-3.54,20.65-3.54,20.65Z"/><path class="cls-5" d="M165.65,141.93c-3.45,14.17,4.28,17.77,4.28,17.77-.06,1.56-.13,2.57-.13,2.57l-7.69.31S158.83,142.13,165.65,141.93Z"/><path class="cls-4" d="M155.81,162.84s1.58-20.52-4.14-20.34c-6.82.2-3.55,20.65-3.55,20.65Z"/><path class="cls-5" d="M151.67,142.5c-3.45,14.17,4.28,17.76,4.28,17.77-.06,1.56-.14,2.57-.14,2.57l-7.69.31S144.85,142.7,151.67,142.5Z"/><path class="cls-4" d="M141.83,163.4s1.58-20.51-4.15-20.34c-6.82.21-3.54,20.66-3.54,20.66Z"/><path class="cls-5" d="M137.68,143.06c-3.44,14.18,4.29,17.77,4.29,17.77-.06,1.57-.14,2.57-.14,2.57l-7.69.32S130.86,143.27,137.68,143.06Z"/><path class="cls-4" d="M157.23,197.79s1.58-20.51-4.15-20.34c-6.82.2-3.54,20.66-3.54,20.66Z"/><path class="cls-5" d="M153.08,177.45c-3.44,14.17,4.29,17.77,4.29,17.77-.06,1.57-.14,2.57-.14,2.57l-7.69.32S146.26,177.65,153.08,177.45Z"/><rect class="cls-9" x="145.83" y="2.89" width="0.91" height="23.82" transform="translate(-0.48 5.91) rotate(-2.31)"/><path class="cls-6" d="M145.44,5.37s1.5-2.34,6.42-1.84A19.91,19.91,0,0,0,165.55,0a13.39,13.39,0,0,1-5.88,6.19,23.41,23.41,0,0,0,11.24-3.43s-6.31,8.38-14,8.27c-9.63-.13-11.12,2.38-11.12,2.38Z"/><path class="cls-5" d="M156.89,11c7.71.11,14-8.27,14-8.27-5.37,5.7-15.8,6.18-20.11,6.3s-5.13,1.84-5.13,1.84l.1,2.51S147.26,10.9,156.89,11Z"/><path class="cls-2" d="M108.18,107.36c.14,3.48-17.49,7-39.39,7.9S29,114.05,28.9,110.58s17.49-7,39.38-7.9S108,103.89,108.18,107.36Z"/><polygon class="cls-11" points="68.19 99.97 39.87 101.12 54.83 280.22 75.46 279.38 96.08 278.55 96.5 98.82 68.19 99.97"/><path class="cls-4" d="M51.63,132.05s-3.23-20.32,2.49-20.61c6.81-.35,5.2,20.29,5.2,20.29Z"/><path class="cls-5" d="M54.12,111.44c4.58,13.84-2.83,18.05-2.83,18.05.18,1.56.34,2.56.34,2.56l7.69-.32S60.93,111.09,54.12,111.44Z"/><path class="cls-4" d="M65.61,131.48s-3.23-20.32,2.49-20.61c6.81-.35,5.2,20.3,5.2,20.3Z"/><path class="cls-5" d="M68.1,110.87c4.58,13.85-2.83,18.06-2.83,18.06.18,1.55.34,2.55.34,2.55l7.69-.31S74.91,110.52,68.1,110.87Z"/><path class="cls-4" d="M79.6,130.91s-3.24-20.32,2.48-20.61c6.82-.35,5.2,20.3,5.2,20.3Z"/><path class="cls-5" d="M82.08,110.3c4.58,13.85-2.83,18.06-2.83,18.06.18,1.56.35,2.55.35,2.55l7.68-.31S88.9,110,82.08,110.3Z"/><path class="cls-6" d="M65.3,28.73S57.18,61.62,29,110c0,0,11-5.8,39.28-6.94S108,106.84,108,106.84C76.05,60.85,65.3,28.73,65.3,28.73Z"/><g class="cls-14"><path class="cls-8" d="M98.85,89.25c-39.33-9.4-61.84,2.38-62.06,2.5l-.22-.58c.22-.12,22.87-12,62.38-2.54Z"/><path class="cls-8" d="M95.44,74C59.65,65.48,39.17,76.2,39,76.31l-.22-.59c.21-.11,20.82-10.91,56.79-2.32Z"/><path class="cls-8" d="M94.79,58.15C59,49.59,38.52,60.31,38.32,60.42l-.22-.58c.2-.11,20.82-10.92,56.79-2.32Z"/><polygon class="cls-8" points="46.31 105.46 45.84 105.17 53.31 86.36 53.78 86.65 46.31 105.46"/><polygon class="cls-8" points="88.88 103.73 79.92 85.59 80.36 85.27 89.33 103.41 88.88 103.73"/><path class="cls-8" d="M66.83,103.17l-.53,0c-.24-6.87-.63-17.28-.71-17.79l.25-.05V85C66.18,85,66.18,85,66.83,103.17Z"/><polygon class="cls-8" points="45.63 88.42 45.15 88.13 51.59 71.79 52.06 72.07 45.63 88.42"/><polygon class="cls-8" points="60.52 85.69 59.99 85.64 60.61 70.59 61.13 70.63 60.52 85.69"/><polygon class="cls-8" points="72.93 85.18 71.19 70.46 71.71 70.38 73.45 85.1 72.93 85.18"/><polygon class="cls-8" points="88.4 87.02 81.75 71.39 82.22 71.1 88.87 86.73 88.4 87.02"/><polygon class="cls-8" points="56.5 71.29 55.99 71.1 59.98 54.71 60.48 54.9 56.5 71.29"/><polygon class="cls-8" points="69.26 70.42 67.64 54.53 68.16 54.46 69.78 70.35 69.26 70.42"/><polygon class="cls-8" points="80.06 71.16 74.78 54.85 75.27 54.63 80.55 70.93 80.06 71.16"/><path class="cls-8" d="M94.24,44.46C58.45,35.9,38,46.62,37.76,46.73l-.21-.58c.2-.11,20.82-10.92,56.78-2.32Z"/><polygon class="cls-8" points="63.72 54.63 63.2 54.56 64.21 40.81 64.74 40.87 63.72 54.63"/><polygon class="cls-8" points="72.4 54.7 68.61 40.91 69.1 40.72 72.9 54.51 72.4 54.7"/><polygon class="cls-8" points="66.14 40.79 65.04 28.76 65.56 28.7 66.66 40.73 66.14 40.79"/></g><path class="cls-5" d="M68.31,103.1C96.63,102,108,106.84,108,106.84c-32-46-42.73-78.11-42.73-78.11s-.5,2-1.68,5.8h0S76.72,71,73.45,85.1,34,101.36,34,101.36h0Q31.61,105.6,29,110S40,104.24,68.31,103.1Z"/><path class="cls-4" d="M53.05,167s-3.24-20.32,2.48-20.61c6.82-.35,5.21,20.3,5.21,20.3Z"/><path class="cls-5" d="M55.53,146.39c4.58,13.85-2.83,18.06-2.83,18.06.19,1.55.35,2.55.35,2.55l7.69-.31S62.35,146,55.53,146.39Z"/><path class="cls-4" d="M67,166.44s-3.23-20.32,2.49-20.62c6.81-.34,5.2,20.31,5.2,20.31Z"/><path class="cls-5" d="M69.52,145.82c4.58,13.85-2.83,18.06-2.83,18.06.18,1.56.34,2.56.34,2.56l7.69-.31S76.33,145.48,69.52,145.82Z"/><path class="cls-4" d="M81,165.87s-3.23-20.32,2.49-20.61c6.81-.35,5.2,20.3,5.2,20.3Z"/><path class="cls-5" d="M83.5,145.26c4.58,13.85-2.83,18.06-2.83,18.06.18,1.55.34,2.55.34,2.55l7.69-.31S90.31,144.91,83.5,145.26Z"/><path class="cls-4" d="M68.44,201.39s-3.23-20.32,2.5-20.61c6.81-.35,5.2,20.3,5.2,20.3Z"/><path class="cls-5" d="M70.94,180.78c4.57,13.85-2.84,18.06-2.84,18.06.19,1.55.34,2.55.34,2.55l7.7-.31S77.75,180.43,70.94,180.78Z"/><polygon class="cls-9" points="64.58 30.03 65.49 30 64.53 6.2 63.62 6.23 64.58 30.03"/><path class="cls-6" d="M64.63,8.64S63,6.43,58.08,7.33A19.93,19.93,0,0,1,44.15,4.92a13.29,13.29,0,0,0,6.36,5.69A23.36,23.36,0,0,1,39,8.1s7,7.84,14.64,7.11C63.27,14.3,65,16.68,65,16.68Z"/><path class="cls-5" d="M53.67,15.21C46,15.94,39,8.1,39,8.1c5.82,5.25,16.25,4.89,20.56,4.66s5.26,1.42,5.26,1.42l.1,2.5S63.27,14.3,53.67,15.21Z"/><path class="cls-2" d="M150.08,161.45c.15,3.66-17.48,7.35-39.37,8.23s-39.77-1.36-39.91-5,17.47-7.35,39.37-8.24S149.93,157.78,150.08,161.45Z"/><polygon class="cls-15" points="110.06 153.56 81.75 154.71 94.47 278.61 115.1 277.77 135.72 276.94 138.38 152.41 110.06 153.56"/><path class="cls-4" d="M93.58,187.36S90.3,165.92,96,165.62c6.82-.35,5.25,21.43,5.25,21.43Z"/><path class="cls-5" d="M96,165.62c4.61,14.62-2.79,19-2.79,19,.19,1.63.35,2.69.35,2.69l7.69-.31S102.84,165.27,96,165.62Z"/><path class="cls-4" d="M107.56,186.79s-3.28-21.44,2.44-21.73c6.82-.36,5.25,21.42,5.25,21.42Z"/><path class="cls-5" d="M110,165.06c4.61,14.62-2.79,19-2.79,19,.19,1.64.35,2.69.35,2.69l7.69-.31S116.82,164.7,110,165.06Z"/><path class="cls-4" d="M121.54,186.23s-3.28-21.44,2.45-21.74c6.81-.35,5.24,21.43,5.24,21.43Z"/><path class="cls-5" d="M124,164.49c4.61,14.62-2.8,19-2.8,19,.19,1.64.35,2.7.35,2.7l7.69-.31S130.8,164.14,124,164.49Z"/><path class="cls-4" d="M128.4,202.37c-1.18-6.39-8.08-10.84-16.67-10.69v0l-.28,0h-.29v0c-8.57.55-15.09,5.55-15.75,12a120.47,120.47,0,0,0,.09,16.71l16.8-.68.57,0,16.79-.68A120.79,120.79,0,0,0,128.4,202.37Z"/><path class="cls-5" d="M128.4,202.37c-.84-4.53-4.56-8.08-9.72-9.71,5.92,4.84,6.41,18-.79,21.53s-22.6.93-22.66.92c.1,3.06.27,5.31.27,5.31l16.8-.68.57,0,16.79-.68A120.79,120.79,0,0,0,128.4,202.37Z"/><path class="cls-16" d="M111.45,191.68s4.9,15.38,14.4,18.72c0,0-2.93,9.92-7.26,13a14.37,14.37,0,0,0,12.68,2.19s1.38-10.65-1.88-14.8c0,0,3.39-16.66-13.14-18.78A32.86,32.86,0,0,0,111.45,191.68Z"/><path class="cls-5" d="M128.23,210.86a15.94,15.94,0,0,1-4,15.09,13.39,13.39,0,0,0,7.06-.33s1.38-10.65-1.88-14.8c0,0,3.39-16.66-13.14-18.78a32.86,32.86,0,0,0-4.8-.36C128.54,194.23,128.23,210.86,128.23,210.86Z"/><path class="cls-16" d="M110.21,191.73s-3.64,15.73-12.85,19.82c0,0,3.72,9.65,8.3,12.4a14.38,14.38,0,0,1-12.47,3.21s-2.24-10.5.67-14.9c0,0-4.72-16.33,11.58-19.78A32.42,32.42,0,0,1,110.21,191.73Z"/><path class="cls-5" d="M95,212.21a16,16,0,0,0,5.22,14.72,13.34,13.34,0,0,1-7.06.23s-2.24-10.5.67-14.9c0,0-4.72-16.33,11.58-19.78a32.42,32.42,0,0,1,4.77-.75C93.37,195.65,95,212.21,95,212.21Z"/><path class="cls-16" d="M125.83,256.19c-2.85-10-12.24-15.32-12.24-15.32h-.14s-8.93,6.07-11,16.25a125,125,0,0,0-2,21.24l14.5-.59h.14l14.49-.58A125.54,125.54,0,0,0,125.83,256.19Z"/><g class="cls-17"><rect class="cls-18" x="113.55" y="237.42" width="2" height="41.5" transform="translate(-10.44 4.89) rotate(-2.34)"/><rect class="cls-18" x="107.64" y="237.66" width="2" height="41.51" transform="translate(-10.35 4.6) rotate(-2.31)"/><rect class="cls-18" x="101.73" y="237.9" width="2" height="41.51" transform="translate(-10.15 4.27) rotate(-2.27)"/><rect class="cls-18" x="125.37" y="236.94" width="2" height="41.51" transform="translate(-10.1 5.2) rotate(-2.27)"/><rect class="cls-18" x="119.46" y="237.18" width="2" height="41.51" transform="translate(-10.54 5.19) rotate(-2.36)"/></g><path class="cls-16" d="M107,78.4s-8,34.68-36.09,85.7c0,0,10.95-6.09,39.27-7.24s39.73,4,39.73,4C117.85,112.32,107,78.4,107,78.4Z"/><g class="cls-19"><path class="cls-8" d="M140.71,142.32c-39.35-10-61.84,2.38-62.06,2.5l-.23-.62c.23-.12,22.85-12.59,62.38-2.54Z"/><path class="cls-8" d="M137.26,126.26c-35.81-9.11-56.27,2.16-56.47,2.27l-.22-.62c.2-.11,20.8-11.46,56.78-2.31Z"/><path class="cls-8" d="M136.58,109.5c-35.81-9.11-56.27,2.16-56.47,2.28l-.22-.62c.2-.12,20.79-11.47,56.78-2.32Z"/><polygon class="cls-8" points="88.2 159.3 87.73 159 95.16 139.17 95.63 139.48 88.2 159.3"/><polygon class="cls-8" points="130.77 157.58 121.76 138.42 122.21 138.08 131.22 157.24 130.77 157.58"/><path class="cls-8" d="M108.71,156.93l-.52,0c-.26-7.25-.68-18.23-.75-18.76l.25-.06v-.36C108,137.76,108,137.76,108.71,156.93Z"/><polygon class="cls-8" points="87.47 141.32 87 141.02 93.4 123.8 93.87 124.1 87.47 141.32"/><polygon class="cls-8" points="102.36 138.47 101.84 138.43 102.42 122.55 102.94 122.59 102.36 138.47"/><polygon class="cls-8" points="114.77 137.97 113 122.44 113.52 122.35 115.29 137.88 114.77 137.97"/><polygon class="cls-8" points="130.25 139.94 123.57 123.44 124.03 123.14 130.72 139.64 130.25 139.94"/><polygon class="cls-8" points="98.31 123.28 97.81 123.08 101.75 105.8 102.26 106 98.31 123.28"/><polygon class="cls-8" points="111.07 122.39 109.42 105.62 109.94 105.55 111.6 122.32 111.07 122.39"/><polygon class="cls-8" points="121.88 123.19 116.56 105.98 117.05 105.74 122.37 122.95 121.88 123.19"/><path class="cls-8" d="M136,95.06c-35.8-9.11-56.27,2.16-56.47,2.27l-.22-.62c.2-.11,20.8-11.46,56.79-2.31Z"/><polygon class="cls-8" points="105.5 105.72 104.97 105.65 105.96 91.14 106.48 91.21 105.5 105.72"/><polygon class="cls-8" points="114.18 105.82 110.35 91.26 110.85 91.06 114.67 105.61 114.18 105.82"/><polygon class="cls-8" points="107.89 91.13 106.76 78.43 107.28 78.37 108.41 91.07 107.89 91.13"/></g><path class="cls-5" d="M110.2,156.86c28.31-1.15,39.73,4,39.73,4C117.85,112.32,107,78.4,107,78.4s-.5,2.13-1.67,6.12h0s13.18,38.54,9.94,53.36S75.84,155,75.84,155h0q-2.36,4.47-4.91,9.15S81.88,158,110.2,156.86Z"/><path class="cls-20" d="M8,305.6s-14-13.79-4.84-19.86,15.74,9.44,15.74,9.44-9.18-21.72,11.39-30.74,22.48,14.71,22.48,14.71,9.48-20.84,17.06-17.92.68,15.81.68,15.81,11-11.59,43.46-12.79a189.6,189.6,0,0,1,60,8s-3.84-9,3.67-11S192.85,272,192.85,272s2.05-21.73,19.29-16.4,8.57,24.11,8.57,24.11,10.64-13.26,15.93-3.86-15.08,21.81-15.08,21.81Z"/><path class="cls-21" d="M69.8,261.23c-7.58-2.92-17.06,17.92-17.06,17.92s9.08-11.42,13.82-11.22S70.48,277,70.48,277,77.38,264.15,69.8,261.23Z"/><path class="cls-21" d="M30.26,264.44c-20.57,9-11.39,30.74-11.39,30.74s2.62-20.95,12.75-25.95c11.93-5.89,21.12,9.92,21.12,9.92S50.82,255.41,30.26,264.44Z"/><path class="cls-21" d="M3.13,285.74C-6.08,291.81,8,305.6,8,305.6S-.28,291.19,4.7,289.18s14.17,6,14.17,6S12.35,279.68,3.13,285.74Z"/><path class="cls-21" d="M236.64,275.87c-5.29-9.4-15.93,3.86-15.93,3.86s23.33-7.53.85,17.95C221.56,297.68,241.94,285.27,236.64,275.87Z"/><path class="cls-21" d="M212.14,255.62c-17.24-5.33-19.29,16.4-19.29,16.4s10.4-13.56,18.57-9.47,9.29,17.18,9.29,17.18S229.37,261,212.14,255.62Z"/><path class="cls-21" d="M177.58,261.22c-7.51,2-3.67,11-3.67,11s2.72-15.63,18.94-.21C192.85,272,185.09,259.19,177.58,261.22Z"/><path class="cls-21" d="M70.48,277s50.94-15.73,103.43-4.81a189.6,189.6,0,0,0-60-8C81.53,265.45,70.48,277,70.48,277Z"/></g></g></svg>