<svg xmlns="http://www.w3.org/2000/svg" viewBox="0 0 1592.07 139.25"><defs><style>.cls-1{fill:#fff;}</style></defs><title>Asset 19</title><g id="Layer_2" data-name="Layer 2"><g id="Layer_1-2" data-name="Layer 1"><path class="cls-1" d="M371.53,52.38H466.8s10.1-31.32-9.29-35c-10.33-2-15.22,4.32-15.22,4.32l-2.85-7.8C436,4.53,429.79-5.27,417.52,3.29l-.16.11a26.15,26.15,0,0,0-10.79,17.88L406.33,23s-8-18.09-19.25-9S385,38.82,385,38.82,367.2,34.3,371.53,52.38Z"/><path class="cls-1" d="M94.21,52.38H2.53s-9.72-31.32,8.94-35c9.94-2,14.65,4.32,14.65,4.32l2.74-7.8C32.15,4.53,38.15-5.27,50,3.29l.16.11A26.28,26.28,0,0,1,60.48,21.28L60.72,23s7.74-18.09,18.53-9,2,24.86,2,24.86S98.37,34.3,94.21,52.38Z"/><path class="cls-1" d="M326.29,86h45.34s4.8-13.86-4.42-15.5c-4.92-.88-7.25,1.91-7.25,1.91l-1.36-3.45c-1.62-4.14-4.59-8.47-10.42-4.69l-.08.05A11.49,11.49,0,0,0,343,72.21l-.11.76s-3.83-8-9.16-4-1,11-1,11S324.23,78,326.29,86Z"/><path class="cls-1" d="M4,139.25H35.55s3.35-9.64-3.07-10.78c-3.43-.61-5,1.33-5,1.33l-1-2.4c-1.13-2.88-3.19-5.89-7.25-3.26l-.06,0a8,8,0,0,0-3.57,5.51l-.08.53s-2.66-5.57-6.38-2.79-.7,7.66-.7,7.66S2.57,133.69,4,139.25Z"/><path class="cls-1" d="M157.76,107.61h-52s-5.51-15.88,5.06-17.77c5.64-1,8.31,2.2,8.31,2.2l1.55-4c1.87-4.74,5.27-9.7,12-5.37l.09.06a13.13,13.13,0,0,1,5.88,9.07l.13.87s4.39-9.17,10.51-4.58,1.16,12.61,1.16,12.61S160.12,98.44,157.76,107.61Z"/><path class="cls-1" d="M470.85,112.77H440s-3.27-9.43,3-10.55a5.21,5.21,0,0,1,4.93,1.3l.92-2.35C450,98.36,452,95.41,456,98l.05,0a7.84,7.84,0,0,1,3.5,5.38l.07.52s2.61-5.44,6.24-2.72.69,7.49.69,7.49S472.25,107.33,470.85,112.77Z"/><path class="cls-1" d="M944.53,52.38h95.27s10.1-31.32-9.29-35c-10.33-2-15.22,4.32-15.22,4.32l-2.85-7.8c-3.42-9.34-9.65-19.14-21.92-10.58l-.16.11a26.15,26.15,0,0,0-10.79,17.88L979.33,23s-8-18.09-19.25-9S958,38.82,958,38.82,940.2,34.3,944.53,52.38Z"/><path class="cls-1" d="M667.21,52.38H575.53s-9.72-31.32,8.94-35c9.94-2,14.65,4.32,14.65,4.32l2.74-7.8C605.15,4.53,611.15-5.27,623,3.29l.16.11a26.28,26.28,0,0,1,10.37,17.88l.24,1.72s7.74-18.09,18.53-9,2,24.86,2,24.86S671.37,34.3,667.21,52.38Z"/><path class="cls-1" d="M899.29,86h45.34s4.8-13.86-4.42-15.5c-4.92-.88-7.25,1.91-7.25,1.91l-1.36-3.45c-1.62-4.14-4.59-8.47-10.42-4.69l-.08.05A11.49,11.49,0,0,0,916,72.21l-.11.76s-3.83-8-9.16-4-1,11-1,11S897.23,78,899.29,86Z"/><path class="cls-1" d="M577,139.25h31.54s3.35-9.64-3.07-10.78c-3.43-.61-5,1.33-5,1.33l-1-2.4c-1.13-2.88-3.19-5.89-7.25-3.26l-.06,0a8,8,0,0,0-3.57,5.51l-.08.53s-2.66-5.57-6.38-2.79-.7,7.66-.7,7.66S575.57,133.69,577,139.25Z"/><path class="cls-1" d="M730.76,107.61h-52s-5.51-15.88,5.06-17.77c5.64-1,8.31,2.2,8.31,2.2l1.55-4c1.87-4.74,5.27-9.7,12-5.37l.09.06a13.13,13.13,0,0,1,5.88,9.07l.13.87s4.39-9.17,10.51-4.58,1.16,12.61,1.16,12.61S733.12,98.44,730.76,107.61Z"/><path class="cls-1" d="M1043.85,112.77H1013s-3.27-9.43,3-10.55a5.21,5.21,0,0,1,4.93,1.3l.92-2.35c1.11-2.81,3.13-5.76,7.1-3.18l0,0a7.84,7.84,0,0,1,3.5,5.38l.07.52s2.61-5.44,6.24-2.72.69,7.49.69,7.49S1045.25,107.33,1043.85,112.77Z"/><path class="cls-1" d="M1492.53,52.38h95.27s10.1-31.32-9.29-35c-10.33-2-15.22,4.32-15.22,4.32l-2.85-7.8c-3.42-9.34-9.65-19.14-21.92-10.58l-.16.11a26.15,26.15,0,0,0-10.79,17.88l-.24,1.72s-8-18.09-19.25-9S1506,38.82,1506,38.82,1488.2,34.3,1492.53,52.38Z"/><path class="cls-1" d="M1215.21,52.38h-91.68s-9.72-31.32,8.94-35c9.94-2,14.65,4.32,14.65,4.32l2.74-7.8c3.29-9.34,9.29-19.14,21.09-10.58l.16.11a26.28,26.28,0,0,1,10.37,17.88l.24,1.72s7.74-18.09,18.53-9,2,24.86,2,24.86S1219.37,34.3,1215.21,52.38Z"/><path class="cls-1" d="M1447.29,86h45.34s4.8-13.86-4.42-15.5c-4.92-.88-7.25,1.91-7.25,1.91l-1.36-3.45c-1.62-4.14-4.59-8.47-10.42-4.69l-.08.05a11.49,11.49,0,0,0-5.14,7.92l-.11.76s-3.83-8-9.16-4-1,11-1,11S1445.23,78,1447.29,86Z"/><path class="cls-1" d="M1125,139.25h31.54s3.35-9.64-3.07-10.78c-3.43-.61-5,1.33-5,1.33l-1-2.4c-1.13-2.88-3.19-5.89-7.25-3.26l-.06,0a8,8,0,0,0-3.57,5.51l-.08.53s-2.66-5.57-6.38-2.79-.7,7.66-.7,7.66S1123.57,133.69,1125,139.25Z"/><path class="cls-1" d="M1278.76,107.61h-52s-5.51-15.88,5.06-17.77c5.64-1,8.31,2.2,8.31,2.2l1.55-4c1.87-4.74,5.27-9.7,12-5.37l.09.06a13.13,13.13,0,0,1,5.88,9.07l.13.87s4.39-9.17,10.51-4.58,1.16,12.61,1.16,12.61S1281.12,98.44,1278.76,107.61Z"/><path class="cls-1" d="M1591.85,112.77H1561s-3.27-9.43,3-10.55a5.21,5.21,0,0,1,4.93,1.3l.92-2.35c1.11-2.81,3.13-5.76,7.1-3.18l0,0a7.84,7.84,0,0,1,3.5,5.38l.07.52s2.61-5.44,6.24-2.72.69,7.49.69,7.49S1593.25,107.33,1591.85,112.77Z"/></g></g></svg>